<svg preserveAspectRatio="none" width="100%" height="100%" overflow="visible" style="display: block;" viewBox="0 0 169.983 36" fill="none" xmlns="http://www.w3.org/2000/svg">
<g id="Group">
<path id="fullLogo" d="M109.112 17.3574V17.8801C109.112 20.1161 108.026 21.2299 106.221 21.2299C104.417 21.2299 103.331 20.1161 103.331 17.8801V14.5045C103.331 12.2684 104.417 11.1547 106.221 11.1547C108.026 11.1547 109.112 12.2684 109.112 14.5045V14.8986H107.803V14.5045C107.803 12.9367 107.213 12.3541 106.221 12.3541C105.229 12.3541 104.639 12.9281 104.639 14.5045V17.8801C104.639 19.4565 105.229 20.0305 106.221 20.0305C107.213 20.0305 107.803 19.4565 107.803 17.8801V17.3574H109.112Z" fill="var(--fill-0, white)"/>
<path id="fullLogo-2" d="M110.925 17.8801V14.5045C110.925 12.2684 112.011 11.1547 113.815 11.1547C115.62 11.1547 116.706 12.2684 116.706 14.5045V17.8801C116.706 20.1333 115.62 21.2299 113.815 21.2299C112.011 21.2299 110.925 20.1333 110.925 17.8801ZM115.397 17.8801V14.5045C115.397 12.9367 114.807 12.3541 113.815 12.3541C112.823 12.3541 112.233 12.9281 112.233 14.5045V17.8801C112.233 19.465 112.823 20.0305 113.815 20.0305C114.799 20.0305 115.397 19.465 115.397 17.8801Z" fill="var(--fill-0, white)"/>
<path id="fullLogo-3" d="M124.419 21.1014H122.264L119.844 12.1057V21.1014H118.638V11.2746H120.819L123.213 20.1675V11.2746H124.419V21.1014Z" fill="var(--fill-0, white)"/>
<path id="fullLogo-4" d="M132.141 14.5559V17.8287C132.141 20.039 131.03 21.1014 129.2 21.1014H126.497V11.2746H129.2C131.03 11.2746 132.141 12.337 132.141 14.5474V14.5559ZM130.833 17.8287V14.5559C130.833 13.0224 130.234 12.4826 129.2 12.4826H127.797V19.8934H129.2C130.209 19.8934 130.833 19.3536 130.833 17.8201V17.8287Z" fill="var(--fill-0, white)"/>
<path id="fullLogo-5" d="M134.074 11.2832H138.47V12.4912H135.383V15.4555H138.205V16.6635H135.383V19.9105H138.47V21.1185H134.074V11.2918V11.2832Z" fill="var(--fill-0, white)"/>
<path id="fullLogo-6" d="M145.927 21.1014H143.772L141.352 12.1057V21.1014H140.146V11.2746H142.327L144.721 20.1675V11.2746H145.927V21.1014Z" fill="var(--fill-0, white)"/>
<path id="fullLogo-7" d="M150.22 11.1461C151.528 11.069 152.649 12.0628 152.725 13.3651C152.725 13.4936 152.725 13.6307 152.717 13.7592V14.3589H151.409V13.7934C151.409 12.7825 150.947 12.337 150.22 12.337C149.621 12.2941 149.1 12.7482 149.057 13.3479C149.057 13.4165 149.057 13.4764 149.057 13.545C149.117 14.2646 149.553 14.8986 150.203 15.207L151.263 15.9695C152.221 16.5007 152.828 17.5031 152.862 18.5997C152.956 19.9448 151.947 21.1185 150.605 21.2213C150.485 21.2299 150.357 21.2299 150.237 21.2213C148.869 21.307 147.697 20.2618 147.612 18.8996C147.612 18.8053 147.612 18.7025 147.612 18.6083V17.8715H148.92V18.514C148.817 19.2423 149.33 19.9105 150.057 20.0048C150.117 20.0048 150.177 20.0133 150.245 20.0133C150.904 20.0819 151.485 19.6107 151.562 18.951C151.562 18.8824 151.571 18.8139 151.562 18.7539C151.52 17.9914 151.075 17.3146 150.399 16.9634L149.365 16.2437C148.39 15.6954 147.774 14.6673 147.757 13.545C147.654 12.3198 148.561 11.2318 149.784 11.129C149.929 11.1204 150.083 11.1204 150.228 11.129L150.22 11.1461Z" fill="var(--fill-0, white)"/>
<path id="fullLogo-8" d="M154.47 11.2832H158.866V12.4912H155.778V15.4555H158.601V16.6635H155.778V19.9105H158.866V21.1185H154.47V11.2918V11.2832Z" fill="var(--fill-0, white)"/>
<path id="fullLogo-9" d="M166.186 14.5559V17.8287C166.186 20.039 165.074 21.1014 163.244 21.1014H160.542V11.2746H163.244C165.074 11.2746 166.186 12.337 166.186 14.5474V14.5559ZM164.878 17.8287V14.5559C164.878 13.0224 164.279 12.4826 163.244 12.4826H161.842V19.8934H163.244C164.253 19.8934 164.878 19.3536 164.878 17.8201V17.8287Z" fill="var(--fill-0, white)"/>
<path id="fullLogo-10" d="M109.394 29.8915H104.271C104.323 30.9367 105.212 31.7506 106.255 31.6992C106.931 31.7506 107.564 31.3736 107.837 30.7568H109.248C108.847 32.0847 107.581 32.9586 106.204 32.8558C104.442 32.8729 102.997 31.4593 102.98 29.6944C102.98 29.6088 102.98 29.5317 102.98 29.446C102.886 27.664 104.246 26.1475 106.016 26.0447C107.795 25.9505 109.308 27.3127 109.411 29.0861C109.411 29.2061 109.411 29.326 109.411 29.446C109.411 29.6002 109.402 29.7458 109.385 29.8915H109.394ZM104.28 28.9491H108.128C108.026 27.8867 107.093 27.1071 106.024 27.2013C105.101 27.287 104.365 28.0238 104.28 28.9491Z" fill="var(--fill-0, white)"/>
<path id="fullLogo-11" d="M113.105 30.3027L111.352 32.7273H109.821L112.387 29.3346L109.958 26.1818H111.489L113.216 28.4093L114.867 26.1818H116.398L113.969 29.3774L116.535 32.7273H115.004L113.122 30.3027H113.105Z" fill="var(--fill-0, white)"/>
<path id="fullLogo-12" d="M118.852 31.742V36H117.544V26.1733H118.852V27.1585C119.348 26.4645 120.143 26.0447 120.999 26.0447C122.752 26.0533 124.154 27.4841 124.146 29.2404C124.146 29.3089 124.146 29.386 124.146 29.4545C124.274 31.2023 122.965 32.7187 121.221 32.8558C121.152 32.8558 121.076 32.8558 121.007 32.8558C120.152 32.8558 119.357 32.436 118.861 31.742H118.852ZM122.829 29.446C122.94 28.3494 122.136 27.3641 121.041 27.2527C119.947 27.1414 118.963 27.9467 118.852 29.0433C118.835 29.1718 118.835 29.3089 118.852 29.446C118.741 30.5426 119.545 31.5278 120.639 31.6392C121.734 31.7506 122.717 30.9453 122.829 29.8486C122.846 29.7201 122.846 29.5831 122.829 29.446Z" fill="var(--fill-0, white)"/>
<path id="fullLogo-13" d="M131.509 29.8915H126.386C126.437 30.9367 127.327 31.7506 128.37 31.6992C129.046 31.7506 129.679 31.3736 129.952 30.7568H131.363C130.961 32.0847 129.696 32.9586 128.319 32.8558C126.557 32.8729 125.112 31.4593 125.095 29.6944C125.095 29.6088 125.095 29.5317 125.095 29.446C125.001 27.664 126.36 26.1475 128.131 26.0447C129.909 25.9505 131.423 27.3127 131.526 29.0861C131.526 29.2061 131.526 29.326 131.526 29.446C131.526 29.6002 131.509 29.7458 131.5 29.8915H131.509ZM126.395 28.9491H130.243C130.14 27.8867 129.208 27.1071 128.139 27.2013C127.216 27.287 126.48 28.0238 126.395 28.9491Z" fill="var(--fill-0, white)"/>
<path id="fullLogo-14" d="M134.296 32.7273H132.988V26.1818H134.296V27.3641C134.741 26.5331 135.613 26.019 136.563 26.0533C136.7 26.0533 136.845 26.0619 136.982 26.0961V27.5269C136.759 27.4584 136.52 27.4155 136.289 27.4241C135.297 27.3127 134.408 28.0324 134.296 29.0262C134.279 29.1718 134.279 29.3175 134.296 29.4545V32.7444V32.7273Z" fill="var(--fill-0, white)"/>
<path id="fullLogo-15" d="M138.051 23.8686C138.051 23.3889 138.453 23.0119 138.923 23.0205C139.402 23.0205 139.778 23.4231 139.77 23.8943C139.77 24.3655 139.376 24.7425 138.906 24.7425C138.436 24.7425 138.051 24.3741 138.042 23.9029C138.042 23.8858 138.042 23.8772 138.042 23.8601L138.051 23.8686ZM138.265 32.7273V26.1818H139.573V32.7273H138.265Z" fill="var(--fill-0, white)"/>
<path id="fullLogo-16" d="M147.432 29.8915H142.309C142.361 30.9367 143.25 31.7506 144.293 31.6992C144.969 31.7506 145.602 31.3736 145.876 30.7568H147.287C146.885 32.0847 145.619 32.9586 144.242 32.8558C142.481 32.8729 141.035 31.4593 141.018 29.6944C141.018 29.6088 141.018 29.5317 141.018 29.446C140.916 27.664 142.275 26.1475 144.054 26.0447C145.833 25.9419 147.346 27.3041 147.449 29.0862C147.449 29.2061 147.449 29.326 147.449 29.446C147.449 29.6002 147.432 29.7458 147.423 29.8915H147.432ZM142.318 28.9491H146.166C146.064 27.8867 145.132 27.1071 144.063 27.2013C143.139 27.287 142.404 28.0238 142.318 28.9491Z" fill="var(--fill-0, white)"/>
<path id="fullLogo-17" d="M150.22 32.7273H148.911V26.1818H150.22V27.2185C150.605 26.4817 151.374 26.0276 152.204 26.0533C153.632 26.0533 154.692 26.97 154.692 28.8977V32.7358H153.384V29.1633C153.384 27.8696 152.785 27.2099 151.802 27.2099C150.818 27.2099 150.22 27.861 150.22 29.1633V32.7358V32.7273Z" fill="var(--fill-0, white)"/>
<path id="fullLogo-18" d="M159.336 27.2442C158.233 27.2699 157.352 28.178 157.378 29.2832C157.378 29.3346 157.378 29.386 157.386 29.446C157.275 30.5426 158.079 31.5278 159.174 31.6392C159.225 31.6392 159.276 31.6392 159.336 31.6478C160.311 31.6906 161.149 30.9538 161.234 29.9686H162.594C162.492 31.6649 161.038 32.95 159.345 32.8472C157.574 32.8729 156.112 31.4507 156.086 29.6773C156.086 29.6002 156.086 29.5231 156.086 29.4374C155.984 27.664 157.335 26.139 159.105 26.0362C159.182 26.0362 159.259 26.0362 159.345 26.0362C160.978 25.9334 162.398 27.1414 162.577 28.7777H161.217C161.098 27.8525 160.277 27.1756 159.345 27.2442H159.336Z" fill="var(--fill-0, white)"/>
<path id="fullLogo-19" d="M169.966 29.8915H164.843C164.895 30.9367 165.784 31.7506 166.827 31.6992C167.503 31.7506 168.136 31.3736 168.409 30.7568H169.82C169.418 32.0847 168.153 32.9586 166.776 32.8558C165.014 32.8729 163.569 31.4593 163.552 29.6944C163.552 29.6088 163.552 29.5317 163.552 29.446C163.458 27.664 164.818 26.1475 166.588 26.0447C168.367 25.9505 169.88 27.3127 169.983 29.0861C169.983 29.2061 169.983 29.326 169.983 29.446C169.983 29.6002 169.974 29.7458 169.957 29.8915H169.966ZM164.852 28.9491H168.7C168.598 27.8867 167.665 27.1071 166.596 27.2013C165.673 27.287 164.937 28.0238 164.852 28.9491Z" fill="var(--fill-0, white)"/>
<path id="fullLogo-20" d="M20.1222 19.6449V22.0866C20.1222 29.5488 16.3167 33.2756 10.0654 33.2756C3.81408 33.2756 0 29.5488 0 22.0866V11.1547C0 3.69253 3.80552 0 10.0568 0C16.3082 0 20.1137 3.69253 20.1137 11.1461V13.2023H13.9051V11.0604C13.9051 6.85388 12.4513 5.4831 10.0568 5.4831C7.66236 5.4831 6.20001 6.85388 6.20001 11.0604V22.2066C6.20001 26.4131 7.65381 27.7839 10.0568 27.7839C12.4599 27.7839 13.9051 26.4131 13.9051 22.2066V19.6364H20.1137L20.1222 19.6449Z" fill="var(--fill-0, white)"/>
<path id="fullLogo-21" d="M24.3896 22.0866V11.1547C24.3896 3.69253 28.1951 0.00856735 34.4464 0.00856735C40.6977 0.00856735 44.5032 3.7011 44.5032 11.1547V22.0866C44.5032 29.5916 40.6977 33.2756 34.4464 33.2756C28.1951 33.2756 24.3896 29.5916 24.3896 22.0866ZM38.3032 22.2151V11.069C38.3032 6.86245 36.8494 5.49167 34.455 5.49167C32.0605 5.49167 30.5981 6.86245 30.5981 11.069V22.2151C30.5981 26.4217 32.0519 27.7925 34.455 27.7925C36.858 27.7925 38.3032 26.4217 38.3032 22.2151Z" fill="var(--fill-0, white)"/>
<path id="fullLogo-22" d="M69.5 23.7144H53.876C54.3891 26.5416 56.0994 28.0495 58.93 28.0495C60.8969 28.0495 62.1797 27.3641 62.7783 25.9505H69.0724C67.7469 30.6711 64.0183 33.1556 58.759 33.1556C52.4649 33.1556 47.9325 28.5635 47.9325 22.0095C47.9325 15.4555 52.4735 10.8548 58.759 10.8548C65.0445 10.8548 69.5855 15.4469 69.5855 22.0095C69.5855 22.6092 69.5427 23.1661 69.5 23.723V23.7144ZM53.9187 20.0733H63.5907C63.0776 17.3746 61.3673 15.9524 58.7504 15.9524C56.1422 15.9524 54.4318 17.366 53.9102 20.0733H53.9187Z" fill="var(--fill-0, white)"/>
<path id="fullLogo-23" d="M81.3954 25.3422L77.3676 32.7187H70.4321L77.4959 21.6583L70.8169 11.2832H77.6669L81.6948 18.1456L85.4575 11.2832H92.3075L85.5858 21.7011L92.6923 32.7187H85.7996L81.3869 25.3422H81.3954Z" fill="var(--fill-0, white)"/>
</g>
</svg>
